<?xml version="1.0" encoding="UTF-8"?>
<svg width="591px" height="628px" viewBox="0 0 591 628" version="1.1" xmlns="http://www.w3.org/2000/svg" xmlns:xlink="http://www.w3.org/1999/xlink">
    <!-- Generator: Sketch 63.1 (92452) - https://sketch.com -->
    <title>Group 34</title>
    <desc>Created with Sketch.</desc>
    <defs>
        <linearGradient x1="0%" y1="0%" x2="100%" y2="0%" id="linearGradient-1">
            <stop stop-color="#FFFFFF" offset="0%"></stop>
            <stop stop-color="#DBDBDB" offset="50.1311043%"></stop>
            <stop stop-color="#FFFFFF" offset="100%"></stop>
        </linearGradient>
        <filter x="-3.1%" y="-3.1%" width="106.1%" height="106.1%" filterUnits="objectBoundingBox" id="filter-2">
            <feGaussianBlur stdDeviation="0.679443934" in="SourceGraphic"></feGaussianBlur>
        </filter>
        <linearGradient x1="-8.0132938%" y1="95.7743883%" x2="16.8714277%" y2="95.7743883%" id="linearGradient-3">
            <stop stop-color="#FFFFFF" stop-opacity="0" offset="0%"></stop>
            <stop stop-color="#000000" offset="100%"></stop>
        </linearGradient>
        <filter x="-4.4%" y="-23.2%" width="108.8%" height="146.4%" filterUnits="objectBoundingBox" id="filter-4">
            <feGaussianBlur stdDeviation="1.16564758" in="SourceGraphic"></feGaussianBlur>
        </filter>
        <filter x="-3.1%" y="-3.1%" width="106.1%" height="106.1%" filterUnits="objectBoundingBox" id="filter-5">
            <feGaussianBlur stdDeviation="0.679443934" in="SourceGraphic"></feGaussianBlur>
        </filter>
        <filter x="-4.4%" y="-23.2%" width="108.8%" height="146.4%" filterUnits="objectBoundingBox" id="filter-6">
            <feGaussianBlur stdDeviation="1.16564758" in="SourceGraphic"></feGaussianBlur>
        </filter>
    </defs>
    <g id="Page-1" stroke="none" stroke-width="1" fill="none" fill-rule="evenodd">
        <g id="homepage-desktop" transform="translate(-685.000000, -2234.000000)">
            <g id="Group-23" transform="translate(551.000000, 2234.000000)">
                <g id="Group-34" transform="translate(134.000000, 0.000000)">
                    <g id="Group-9-Copy-2" opacity="0.699999988" transform="translate(58.000000, 0.000000)" fill="url(#linearGradient-1)" fill-rule="nonzero">
                        <g id="Group-8" transform="translate(0.000000, 154.000000)">
                            <rect id="Rectangle" x="0" y="0" width="529" height="1"></rect>
                            <rect id="Rectangle" x="0" y="44" width="529" height="1"></rect>
                            <rect id="Rectangle" x="0" y="88" width="529" height="1"></rect>
                            <rect id="Rectangle" x="0" y="133" width="529" height="1"></rect>
                            <rect id="Rectangle" x="0" y="177" width="529" height="1"></rect>
                            <rect id="Rectangle" x="0" y="221" width="529" height="1"></rect>
                        </g>
                        <g id="Group-7" transform="translate(264.500000, 265.000000) rotate(90.000000) translate(-264.500000, -265.000000) translate(-0.000000, 154.000000)">
                            <rect id="Rectangle" x="0" y="0" width="529" height="1"></rect>
                            <rect id="Rectangle" x="0" y="44" width="529" height="1"></rect>
                            <rect id="Rectangle" x="0" y="88" width="529" height="1"></rect>
                            <rect id="Rectangle" x="0" y="133" width="529" height="1"></rect>
                            <rect id="Rectangle" x="0" y="177" width="529" height="1"></rect>
                            <rect id="Rectangle" x="0" y="221" width="529" height="1"></rect>
                        </g>
                    </g>
                    <g id="Group-30-Copy" transform="translate(349.000000, 345.000000)">
                        <g id="Group-9-Copy-25">
                            <g id="Group-9-Copy-4">
                                <path d="M11.3139174,10.7775247 C16.3780091,15.3246985 38.2846442,14.1594198 64.1661181,14.7989013 C64.1661181,14.7989013 69.8673763,47.2916207 72.7950489,77.3715165 C45.213288,76.8889535 21.9459931,75.6021152 6.22901168,76.4063883 C5.61997258,76.5185857 6.24982572,6.23035079 11.3139174,10.7775247 Z" id="Mask-Copy-4" fill="#000000" opacity="0.2" filter="url(#filter-2)"></path>
                                <path d="M13.2798081,7.21263319 C13.272959,7.07196085 13.2798081,6.79245283 13.6776698,6.79245283 C14.0755314,6.79245283 48.7045636,6.79621971 74.5860376,7.40782335 C74.5860376,7.40782335 77.8218882,45.392932 77.3596249,75.0845626 C46.542011,76.2818379 24.3533341,77.0861132 9.09861657,79.4989391 C8.50211261,79.4081286 14.4744166,31.7484035 13.2798081,7.21263319 Z" id="Mask-Copy-5" fill="url(#linearGradient-3)" opacity="0.03"></path>
                                <path d="M0,0 L78.5849057,0 C78.5849057,0 80.4339623,11.5815642 78.5849057,14.7986653 C28.3522013,11.5815642 48.0754717,16.2463609 0,14.7986653 L0,0 Z" id="Rectangle-19-Copy" fill="#000000" opacity="0.02" filter="url(#filter-4)"></path>
                            </g>
                            <path d="M5.81818182,2.18181818 C5.96634616,2.18181818 6.17532866,2.18181818 6.44512932,2.18181818 C6.71492998,2.18181818 30.6434256,2.18181818 78.2306162,2.18181818 L78.5454545,74.9090909 L5.81818182,74.9090909 L5.81818182,2.18181818 Z" id="Mask-Copy-9" fill="#FFD02F"></path>
                        </g>
                        <path d="M22.856,35 L22.856,31.184 L26.828,31.184 L26.828,30.2 L22.856,30.2 L22.856,27.416 L27.764,27.416 L27.764,26.432 L21.776,26.432 L21.776,35 L22.856,35 Z M30.356,27.38 L30.356,26.276 L29.276,26.276 L29.276,27.38 L30.356,27.38 Z M30.32,35 L30.32,28.952 L29.3,28.952 L29.3,35 L30.32,35 Z M33.344,35 L33.344,31.724 C33.344,30.656 34.064,29.708 35.144,29.708 C36.164,29.708 36.68,30.26 36.68,31.376 L36.68,35 L37.7,35 L37.7,31.16 C37.7,29.708 36.884,28.796 35.396,28.796 C34.58,28.796 33.908,29.132 33.572,29.6 L33.308,29.6 L33.308,28.952 L32.324,28.952 L32.324,35 L33.344,35 Z M41.276,35.156 C42.14,35.156 42.788,34.832 43.16,34.364 L43.424,34.364 L43.424,35 L44.384,35 L44.384,30.884 C44.384,29.528 43.412,28.796 41.888,28.796 C40.532,28.796 39.572,29.444 39.488,30.56 L40.508,30.56 C40.556,30.032 41.012,29.684 41.912,29.684 C42.968,29.684 43.388,30.212 43.388,30.944 L43.388,31.184 L41.42,31.184 C39.74,31.184 39.104,32.216 39.104,33.188 C39.104,34.22 39.884,35.156 41.276,35.156 Z M41.528,34.268 C40.628,34.268 40.124,33.836 40.124,33.152 C40.124,32.432 40.58,32 41.576,32 L43.388,32 L43.388,32.552 C43.388,33.512 42.536,34.268 41.528,34.268 Z M47.276,35 L47.276,26.276 L46.256,26.276 L46.256,35 L47.276,35 Z M50.324,27.38 L50.324,26.276 L49.244,26.276 L49.244,27.38 L50.324,27.38 Z M50.288,35 L50.288,28.952 L49.268,28.952 L49.268,35 L50.288,35 Z M56.912,35 L56.912,34.112 L53.204,34.112 L53.204,33.848 L56.876,30.092 L56.876,28.952 L52.088,28.952 L52.088,29.84 L55.568,29.84 L55.568,30.092 L51.884,33.848 L51.884,35 L56.912,35 Z M61.04,35.156 C62.54,35.156 63.416,34.364 63.608,33.332 L62.576,33.332 C62.396,33.908 61.892,34.268 61.04,34.268 C59.792,34.268 59.144,33.404 59.108,31.964 L63.716,31.964 L63.716,31.616 C63.68,30.128 62.816,28.796 61.016,28.796 C59.18,28.796 58.1,30.056 58.1,31.916 C58.1,33.776 59.156,35.156 61.04,35.156 Z M62.66,31.112 L59.168,31.112 C59.3,30.344 59.9,29.684 60.992,29.684 C62.012,29.684 62.6,30.344 62.66,31.112 Z M26.738,50.156 C27.698,50.156 28.286,49.772 28.622,49.352 L28.886,49.352 L28.886,50 L29.87,50 L29.87,41.276 L28.85,41.276 L28.85,44.6 L28.586,44.6 C28.25,44.168 27.698,43.796 26.738,43.796 C25.07,43.796 24.086,45.152 24.086,46.976 C24.086,48.764 25.07,50.156 26.738,50.156 Z M26.966,49.268 C25.754,49.268 25.106,48.32 25.106,46.976 C25.106,45.632 25.754,44.684 26.966,44.684 C28.31,44.684 28.862,45.788 28.862,46.976 C28.862,48.164 28.31,49.268 26.966,49.268 Z M34.406,50.156 C35.906,50.156 36.782,49.364 36.974,48.332 L35.942,48.332 C35.762,48.908 35.258,49.268 34.406,49.268 C33.158,49.268 32.51,48.404 32.474,46.964 L37.082,46.964 L37.082,46.616 C37.046,45.128 36.182,43.796 34.382,43.796 C32.546,43.796 31.466,45.056 31.466,46.916 C31.466,48.776 32.522,50.156 34.406,50.156 Z M36.026,46.112 L32.534,46.112 C32.666,45.344 33.266,44.684 34.358,44.684 C35.378,44.684 35.966,45.344 36.026,46.112 Z M40.85,50.156 C42.482,50.156 43.334,49.256 43.334,48.26 C43.334,47.156 42.662,46.616 41.606,46.436 L40.922,46.328 L40.346,46.232 C39.734,46.136 39.434,45.956 39.434,45.488 C39.434,44.972 39.962,44.684 40.742,44.684 C41.498,44.684 42.074,44.948 42.158,45.524 L43.178,45.524 C43.046,44.468 42.218,43.796 40.79,43.796 C39.158,43.796 38.402,44.576 38.402,45.584 C38.402,46.496 38.99,46.952 39.854,47.108 L41.21,47.336 C41.978,47.468 42.314,47.756 42.314,48.284 C42.314,48.944 41.714,49.268 40.802,49.268 C39.89,49.268 39.29,48.932 39.194,48.248 L38.162,48.248 C38.294,49.4 39.134,50.156 40.85,50.156 Z M45.914,42.38 L45.914,41.276 L44.834,41.276 L44.834,42.38 L45.914,42.38 Z M45.878,50 L45.878,43.952 L44.858,43.952 L44.858,50 L45.878,50 Z M50.474,52.484 C52.238,52.484 53.294,51.392 53.294,49.7 L53.294,43.952 L52.31,43.952 L52.31,44.6 L52.046,44.6 C51.722,44.18 51.146,43.796 50.198,43.796 C48.53,43.796 47.51,45.116 47.51,46.892 C47.51,48.656 48.53,49.976 50.198,49.976 C51.11,49.976 51.686,49.592 52.01,49.172 L52.274,49.172 L52.274,49.652 C52.274,50.864 51.71,51.62 50.462,51.62 C49.55,51.62 48.926,51.356 48.746,50.636 L47.738,50.636 C47.918,51.836 48.926,52.484 50.474,52.484 Z M50.39,49.088 C49.202,49.088 48.53,48.2 48.53,46.892 C48.53,45.56 49.202,44.684 50.39,44.684 C51.686,44.684 52.298,45.728 52.298,46.892 C52.298,48.044 51.686,49.088 50.39,49.088 Z M56.282,50 L56.282,46.724 C56.282,45.656 57.002,44.708 58.082,44.708 C59.102,44.708 59.618,45.26 59.618,46.376 L59.618,50 L60.638,50 L60.638,46.16 C60.638,44.708 59.822,43.796 58.334,43.796 C57.518,43.796 56.846,44.132 56.51,44.6 L56.246,44.6 L56.246,43.952 L55.262,43.952 L55.262,50 L56.282,50 Z" id="Finalizedesign" fill="#050038" fill-rule="nonzero"></path>
                    </g>
                    <g id="Group-29-Copy" transform="translate(114.000000, 186.000000)">
                        <g id="Group-9-Copy-26">
                            <g id="Group-9-Copy-4">
                                <path d="M11.3139174,10.7775247 C16.3780091,15.3246985 38.2846442,14.1594198 64.1661181,14.7989013 C64.1661181,14.7989013 69.8673763,47.2916207 72.7950489,77.3715165 C45.213288,76.8889535 21.9459931,75.6021152 6.22901168,76.4063883 C5.61997258,76.5185857 6.24982572,6.23035079 11.3139174,10.7775247 Z" id="Mask-Copy-4" fill="#000000" opacity="0.2" filter="url(#filter-5)"></path>
                                <path d="M13.2798081,7.21263319 C13.272959,7.07196085 13.2798081,6.79245283 13.6776698,6.79245283 C14.0755314,6.79245283 48.7045636,6.79621971 74.5860376,7.40782335 C74.5860376,7.40782335 77.8218882,45.392932 77.3596249,75.0845626 C46.542011,76.2818379 24.3533341,77.0861132 9.09861657,79.4989391 C8.50211261,79.4081286 14.4744166,31.7484035 13.2798081,7.21263319 Z" id="Mask-Copy-5" fill="url(#linearGradient-3)" opacity="0.03"></path>
                                <path d="M0,0 L78.5849057,0 C78.5849057,0 80.4339623,11.5815642 78.5849057,14.7986653 C28.3522013,11.5815642 48.0754717,16.2463609 0,14.7986653 L0,0 Z" id="Rectangle-19-Copy" fill="#000000" opacity="0.02" filter="url(#filter-6)"></path>
                            </g>
                            <path d="M5.81818182,2.18181818 C5.96634616,2.18181818 6.17532866,2.18181818 6.44512932,2.18181818 C6.71492998,2.18181818 30.6434256,2.18181818 78.2306162,2.18181818 L78.5454545,74.9090909 L5.81818182,74.9090909 L5.81818182,2.18181818 Z" id="Mask-Copy-9" fill="#FFBFBF"></path>
                        </g>
                        <path d="M21.536,36 L22.424,33.372 L26.18,33.372 L27.068,36 L28.196,36 L25.22,27.432 L23.396,27.432 L20.432,36 L21.536,36 Z M25.844,32.388 L22.748,32.388 L24.056,28.536 L24.536,28.536 L25.844,32.388 Z M30.44,36 L30.44,32.724 C30.44,31.656 31.16,30.708 32.24,30.708 C33.26,30.708 33.776,31.26 33.776,32.376 L33.776,36 L34.796,36 L34.796,32.16 C34.796,30.708 33.98,29.796 32.492,29.796 C31.676,29.796 31.004,30.132 30.668,30.6 L30.404,30.6 L30.404,29.952 L29.42,29.952 L29.42,36 L30.44,36 Z M38.372,36.156 C39.236,36.156 39.884,35.832 40.256,35.364 L40.52,35.364 L40.52,36 L41.48,36 L41.48,31.884 C41.48,30.528 40.508,29.796 38.984,29.796 C37.628,29.796 36.668,30.444 36.584,31.56 L37.604,31.56 C37.652,31.032 38.108,30.684 39.008,30.684 C40.064,30.684 40.484,31.212 40.484,31.944 L40.484,32.184 L38.516,32.184 C36.836,32.184 36.2,33.216 36.2,34.188 C36.2,35.22 36.98,36.156 38.372,36.156 Z M38.624,35.268 C37.724,35.268 37.22,34.836 37.22,34.152 C37.22,33.432 37.676,33 38.672,33 L40.484,33 L40.484,33.552 C40.484,34.512 39.632,35.268 38.624,35.268 Z M44.372,36 L44.372,27.276 L43.352,27.276 L43.352,36 L44.372,36 Z M47.972,38.4 L51.596,29.952 L50.528,29.952 L48.848,33.936 L48.548,33.936 L46.7,29.952 L45.608,29.952 L48.188,35.436 L46.94,38.4 L47.972,38.4 Z M54.98,36.156 C56.612,36.156 57.464,35.256 57.464,34.26 C57.464,33.156 56.792,32.616 55.736,32.436 L55.052,32.328 L54.476,32.232 C53.864,32.136 53.564,31.956 53.564,31.488 C53.564,30.972 54.092,30.684 54.872,30.684 C55.628,30.684 56.204,30.948 56.288,31.524 L57.308,31.524 C57.176,30.468 56.348,29.796 54.92,29.796 C53.288,29.796 52.532,30.576 52.532,31.584 C52.532,32.496 53.12,32.952 53.984,33.108 L55.34,33.336 C56.108,33.468 56.444,33.756 56.444,34.284 C56.444,34.944 55.844,35.268 54.932,35.268 C54.02,35.268 53.42,34.932 53.324,34.248 L52.292,34.248 C52.424,35.4 53.264,36.156 54.98,36.156 Z M61.532,36.156 C63.032,36.156 63.908,35.364 64.1,34.332 L63.068,34.332 C62.888,34.908 62.384,35.268 61.532,35.268 C60.284,35.268 59.636,34.404 59.6,32.964 L64.208,32.964 L64.208,32.616 C64.172,31.128 63.308,29.796 61.508,29.796 C59.672,29.796 58.592,31.056 58.592,32.916 C58.592,34.776 59.648,36.156 61.532,36.156 Z M63.152,32.112 L59.66,32.112 C59.792,31.344 60.392,30.684 61.484,30.684 C62.504,30.684 63.092,31.344 63.152,32.112 Z M33.086,52.156 C34.046,52.156 34.634,51.772 34.97,51.352 L35.234,51.352 L35.234,52 L36.218,52 L36.218,43.276 L35.198,43.276 L35.198,46.6 L34.934,46.6 C34.598,46.168 34.046,45.796 33.086,45.796 C31.418,45.796 30.434,47.152 30.434,48.976 C30.434,50.764 31.418,52.156 33.086,52.156 Z M33.314,51.268 C32.102,51.268 31.454,50.32 31.454,48.976 C31.454,47.632 32.102,46.684 33.314,46.684 C34.658,46.684 35.21,47.788 35.21,48.976 C35.21,50.164 34.658,51.268 33.314,51.268 Z M39.89,52.156 C40.754,52.156 41.402,51.832 41.774,51.364 L42.038,51.364 L42.038,52 L42.998,52 L42.998,47.884 C42.998,46.528 42.026,45.796 40.502,45.796 C39.146,45.796 38.186,46.444 38.102,47.56 L39.122,47.56 C39.17,47.032 39.626,46.684 40.526,46.684 C41.582,46.684 42.002,47.212 42.002,47.944 L42.002,48.184 L40.034,48.184 C38.354,48.184 37.718,49.216 37.718,50.188 C37.718,51.22 38.498,52.156 39.89,52.156 Z M40.142,51.268 C39.242,51.268 38.738,50.836 38.738,50.152 C38.738,49.432 39.194,49 40.19,49 L42.002,49 L42.002,49.552 C42.002,50.512 41.15,51.268 40.142,51.268 Z M47.798,52 L47.798,51.088 L47.354,51.088 C46.538,51.088 46.274,50.776 46.274,50.164 L46.274,46.84 L47.798,46.84 L47.798,45.952 L46.274,45.952 L46.274,44.128 L45.254,44.128 L45.254,45.952 L44.21,45.952 L44.21,46.84 L45.254,46.84 L45.254,50.308 C45.254,51.592 46.022,52 47.33,52 L47.798,52 Z M51.182,52.156 C52.046,52.156 52.694,51.832 53.066,51.364 L53.33,51.364 L53.33,52 L54.29,52 L54.29,47.884 C54.29,46.528 53.318,45.796 51.794,45.796 C50.438,45.796 49.478,46.444 49.394,47.56 L50.414,47.56 C50.462,47.032 50.918,46.684 51.818,46.684 C52.874,46.684 53.294,47.212 53.294,47.944 L53.294,48.184 L51.326,48.184 C49.646,48.184 49.01,49.216 49.01,50.188 C49.01,51.22 49.79,52.156 51.182,52.156 Z M51.434,51.268 C50.534,51.268 50.03,50.836 50.03,50.152 C50.03,49.432 50.486,49 51.482,49 L53.294,49 L53.294,49.552 C53.294,50.512 52.442,51.268 51.434,51.268 Z" id="Analysedata" fill="#050038" fill-rule="nonzero"></path>
                    </g>
                    <g id="Group-10-Copy-2" transform="translate(251.000000, 116.000000)">
                        <g id="Group-26" transform="translate(165.500000, 57.000000) scale(1, -1) translate(-165.500000, -57.000000) translate(126.000000, 38.000000)">
                            <circle id="Oval" fill="#FF0170" cx="76" cy="3" r="3"></circle>
                            <path d="M0,38 C33.8173828,38 34.6149089,3 70,3" id="Path-2-Copy-31" stroke="#FF0170" stroke-width="2" stroke-linecap="round"></path>
                        </g>
                        <path d="M35.392,41 L35.392,33.704 L38.128,33.704 L38.128,32.432 L31.204,32.432 L31.204,33.704 L33.952,33.704 L33.952,41 L35.392,41 Z M41.956,41.156 C43.54,41.156 44.452,40.364 44.68,39.224 L43.3,39.224 C43.12,39.716 42.7,40.004 41.968,40.004 C40.864,40.004 40.288,39.308 40.252,38.06 L44.764,38.06 L44.764,37.604 C44.728,36.02 43.756,34.736 41.92,34.736 C40.048,34.736 38.908,35.996 38.908,37.904 C38.908,39.812 40.036,41.156 41.956,41.156 Z M43.372,37.052 L40.312,37.052 C40.468,36.344 40.948,35.816 41.908,35.816 C42.808,35.816 43.288,36.368 43.372,37.052 Z M47.62,41 L47.62,37.676 C47.62,36.728 48.028,35.948 48.928,35.948 C49.648,35.948 49.972,36.44 49.972,37.34 L49.972,41 L51.328,41 L51.328,37.52 C51.328,36.608 51.772,35.948 52.624,35.948 C53.356,35.948 53.668,36.416 53.668,37.328 L53.668,41 L55.024,41 L55.024,37.1 C55.024,35.66 54.388,34.736 52.96,34.736 C52.204,34.736 51.64,34.988 51.268,35.48 L50.98,35.48 C50.656,34.988 50.128,34.736 49.396,34.736 C48.64,34.736 48.16,34.976 47.86,35.444 L47.572,35.444 L47.572,34.892 L46.264,34.892 L46.264,41 L47.62,41 Z M58.168,43.4 L58.168,40.412 L58.456,40.412 C58.78,40.844 59.308,41.156 60.208,41.156 C61.852,41.156 62.848,39.8 62.848,37.94 C62.848,36.116 61.864,34.736 60.208,34.736 C59.296,34.736 58.744,35.06 58.408,35.48 L58.12,35.48 L58.12,34.892 L56.812,34.892 L56.812,43.4 L58.168,43.4 Z M59.824,40.004 C58.636,40.004 58.132,39.032 58.132,37.94 C58.132,36.872 58.636,35.888 59.824,35.888 C60.94,35.888 61.492,36.764 61.492,37.94 C61.492,39.128 60.94,40.004 59.824,40.004 Z M65.716,41 L65.716,32.276 L64.36,32.276 L64.36,41 L65.716,41 Z M69.316,41.156 C70.168,41.156 70.744,40.904 71.116,40.436 L71.404,40.436 L71.404,41 L72.664,41 L72.664,36.944 C72.664,35.432 71.608,34.736 70.024,34.736 C68.584,34.736 67.564,35.432 67.504,36.584 L68.848,36.584 C68.896,36.116 69.292,35.804 70.072,35.804 C70.972,35.804 71.356,36.248 71.356,36.92 L71.356,37.1 L69.556,37.1 C67.792,37.1 67.132,38.192 67.132,39.152 C67.132,40.208 67.912,41.156 69.316,41.156 Z M69.736,40.052 C68.956,40.052 68.5,39.692 68.5,39.068 C68.5,38.432 68.932,38.06 69.796,38.06 L71.356,38.06 L71.356,38.528 C71.356,39.38 70.648,40.052 69.736,40.052 Z M77.584,41 L77.584,39.824 L77.08,39.824 C76.396,39.824 76.144,39.536 76.144,39.02 L76.144,36.044 L77.584,36.044 L77.584,34.892 L76.144,34.892 L76.144,33.116 L74.788,33.116 L74.788,34.892 L73.816,34.892 L73.816,36.044 L74.788,36.044 L74.788,39.2 C74.788,40.592 75.7,41 77.056,41 L77.584,41 Z M81.88,41.156 C83.464,41.156 84.376,40.364 84.604,39.224 L83.224,39.224 C83.044,39.716 82.624,40.004 81.892,40.004 C80.788,40.004 80.212,39.308 80.176,38.06 L84.688,38.06 L84.688,37.604 C84.652,36.02 83.68,34.736 81.844,34.736 C79.972,34.736 78.832,35.996 78.832,37.904 C78.832,39.812 79.96,41.156 81.88,41.156 Z M83.296,37.052 L80.236,37.052 C80.392,36.344 80.872,35.816 81.832,35.816 C82.732,35.816 83.212,36.368 83.296,37.052 Z M88.516,41.156 C90.244,41.156 91.132,40.22 91.132,39.2 C91.132,38.06 90.388,37.484 89.272,37.304 L88.084,37.112 C87.568,37.028 87.304,36.896 87.304,36.5 C87.304,36.056 87.748,35.864 88.408,35.864 C89.032,35.864 89.524,36.008 89.608,36.524 L90.964,36.524 C90.832,35.456 89.944,34.736 88.456,34.736 C86.728,34.736 85.948,35.564 85.948,36.596 C85.948,37.556 86.596,38.048 87.508,38.204 L88.78,38.42 C89.488,38.552 89.776,38.768 89.776,39.236 C89.776,39.8 89.272,40.028 88.492,40.028 C87.688,40.028 87.184,39.776 87.076,39.152 L85.72,39.152 C85.852,40.364 86.728,41.156 88.516,41.156 Z" id="Templates" fill="#050038" fill-rule="nonzero"></path>
                        <path d="M126,38 C160.141352,38 160.275921,38 196,38" id="Path-2-Copy-30" stroke="#FF45E4" stroke-width="2" stroke-linecap="round"></path>
                        <g id="Group-26" transform="translate(126.000000, 0.000000)">
                            <circle id="Oval" fill="#7A29FF" cx="76" cy="3" r="3"></circle>
                            <path d="M0,38 C33.8173828,38 34.6149089,3 70,3" id="Path-2-Copy-31" stroke="#7A29FF" stroke-width="2" stroke-linecap="round"></path>
                        </g>
                        <circle id="Oval" fill="#FF45E4" cx="202" cy="38" r="3"></circle>
                        <path d="M102,15 L24,15 C17.6487254,15 11.8987254,17.5743627 7.73654403,21.736544 C3.57436269,25.8987254 1,31.6487254 1,38 C1,44.3512746 3.57436269,50.1012746 7.73654403,54.263456 C11.8987254,58.4256373 17.6487254,61 24,61 L102,61 C108.351275,61 114.101275,58.4256373 118.263456,54.263456 C122.425637,50.1012746 125,44.3512746 125,38 C125,31.6487254 122.425637,25.8987254 118.263456,21.736544 C114.101275,17.5743627 108.351275,15 102,15 Z" id="Rectangle-Copy-2" stroke="#7A29FF" stroke-width="2"></path>
                    </g>
                    <ellipse id="Oval-Copy-5" fill="#FF6575" cx="553.5" cy="593" rx="37.5" ry="35"></ellipse>
                    <ellipse id="Oval-Copy-6" fill="#FF6575" cx="516" cy="535" rx="16" ry="15"></ellipse>
                    <g id="user1-copy-3" transform="translate(281.000000, 213.000000)">
                        <g id="Jessica_Ñ-Copy-2">
                            <path d="M2,20 L73,20 C74.1045695,20 75,20.8954305 75,22 L75,42 C75,43.1045695 74.1045695,44 73,44 L2,44 C0.8954305,44 1.3527075e-16,43.1045695 0,42 L0,22 C-1.3527075e-16,20.8954305 0.8954305,20 2,20 Z" id="Rectangle-301" fill="#3F53D9"></path>
                            <path d="M12.296,35 C14.924,35 16.256,33.284 16.256,30.716 C16.256,28.136 14.924,26.432 12.296,26.432 L9.092,26.432 L9.092,35 L12.296,35 Z M12.296,34.016 L10.172,34.016 L10.172,27.416 L12.296,27.416 C14.372,27.416 15.164,28.928 15.164,30.716 C15.164,32.504 14.372,34.016 12.296,34.016 Z M20.468,35.156 C21.968,35.156 22.844,34.364 23.036,33.332 L22.004,33.332 C21.824,33.908 21.32,34.268 20.468,34.268 C19.22,34.268 18.572,33.404 18.536,31.964 L23.144,31.964 L23.144,31.616 C23.108,30.128 22.244,28.796 20.444,28.796 C18.608,28.796 17.528,30.056 17.528,31.916 C17.528,33.776 18.584,35.156 20.468,35.156 Z M22.088,31.112 L18.596,31.112 C18.728,30.344 19.328,29.684 20.42,29.684 C21.44,29.684 22.028,30.344 22.088,31.112 Z M27.92,35 L29.948,28.952 L28.88,28.952 L27.248,34.04 L26.756,34.04 L25.064,28.952 L24.008,28.952 L26.012,35 L27.92,35 Z M33.764,35.156 C35.264,35.156 36.14,34.364 36.332,33.332 L35.3,33.332 C35.12,33.908 34.616,34.268 33.764,34.268 C32.516,34.268 31.868,33.404 31.832,31.964 L36.44,31.964 L36.44,31.616 C36.404,30.128 35.54,28.796 33.74,28.796 C31.904,28.796 30.824,30.056 30.824,31.916 C30.824,33.776 31.88,35.156 33.764,35.156 Z M35.384,31.112 L31.892,31.112 C32.024,30.344 32.624,29.684 33.716,29.684 C34.736,29.684 35.324,30.344 35.384,31.112 Z M39.044,35 L39.044,26.276 L38.024,26.276 L38.024,35 L39.044,35 Z M43.616,35.156 C45.5,35.156 46.592,33.764 46.592,31.976 C46.592,30.188 45.5,28.796 43.616,28.796 C41.72,28.796 40.64,30.188 40.64,31.976 C40.64,33.764 41.72,35.156 43.616,35.156 Z M43.616,34.268 C42.272,34.268 41.66,33.164 41.66,31.976 C41.66,30.788 42.272,29.684 43.616,29.684 C44.948,29.684 45.572,30.788 45.572,31.976 C45.572,33.164 44.948,34.268 43.616,34.268 Z M49.208,37.4 L49.208,34.352 L49.472,34.352 C49.796,34.784 50.36,35.156 51.32,35.156 C52.988,35.156 53.972,33.8 53.972,31.976 C53.972,30.188 52.988,28.796 51.32,28.796 C50.36,28.796 49.772,29.18 49.436,29.6 L49.172,29.6 L49.172,28.952 L48.188,28.952 L48.188,37.4 L49.208,37.4 Z M51.092,34.268 C49.748,34.268 49.196,33.164 49.196,31.976 C49.196,30.788 49.748,29.684 51.092,29.684 C52.304,29.684 52.952,30.632 52.952,31.976 C52.952,33.32 52.304,34.268 51.092,34.268 Z M58.136,35.156 C59.636,35.156 60.512,34.364 60.704,33.332 L59.672,33.332 C59.492,33.908 58.988,34.268 58.136,34.268 C56.888,34.268 56.24,33.404 56.204,31.964 L60.812,31.964 L60.812,31.616 C60.776,30.128 59.912,28.796 58.112,28.796 C56.276,28.796 55.196,30.056 55.196,31.916 C55.196,33.776 56.252,35.156 58.136,35.156 Z M59.756,31.112 L56.264,31.112 C56.396,30.344 56.996,29.684 58.088,29.684 C59.108,29.684 59.696,30.344 59.756,31.112 Z M63.416,35 L63.416,31.976 C63.416,30.644 64.148,29.912 65.348,29.912 L65.852,29.912 L65.852,28.952 L65.396,28.952 C64.52,28.952 63.944,29.3 63.644,29.672 L63.38,29.672 L63.38,28.952 L62.396,28.952 L62.396,35 L63.416,35 Z" id="Developer" fill="#FFFFFF" fill-rule="nonzero"></path>
                            <g id="def_24" transform="translate(73.000000, 0.000000)" fill="#3F53D9">
                                <path d="M6,17 L10.3942661,14.4107573 L12.2537906,19.0712038 C12.457749,19.5844484 13.0395044,19.8343654 13.5524644,19.6296937 C13.5527023,19.6295988 13.5529401,19.6295038 13.5528927,19.6286955 L14.0528411,19.4287699 C14.5652808,19.2233166 14.8147882,18.6416788 14.6105069,18.1287708 L12.7499683,13.4694913 L12.7499683,13.4694913 L17.5,12 L6,3.69482223e-13 L6,17 Z" id="Path-Copy-5" transform="translate(11.750000, 10.000000) rotate(-300.000000) translate(-11.750000, -10.000000) "></path>
                            </g>
                        </g>
                    </g>
                    <path d="M16,331 L80,331 C81.1045695,331 82,331.895431 82,333 L82,353 C82,354.104569 81.1045695,355 80,355 L16,355 C14.8954305,355 14,354.104569 14,353 L14,333 C14,331.895431 14.8954305,331 16,331 Z" id="Rectangle-301" fill="#050038" fill-rule="nonzero"></path>
                    <path d="M26.296,346 C28.924,346 30.256,344.284 30.256,341.716 C30.256,339.136 28.924,337.432 26.296,337.432 L23.092,337.432 L23.092,346 L26.296,346 Z M26.296,345.016 L24.172,345.016 L24.172,338.416 L26.296,338.416 C28.372,338.416 29.164,339.928 29.164,341.716 C29.164,343.504 28.372,345.016 26.296,345.016 Z M34.468,346.156 C35.968,346.156 36.844,345.364 37.036,344.332 L36.004,344.332 C35.824,344.908 35.32,345.268 34.468,345.268 C33.22,345.268 32.572,344.404 32.536,342.964 L37.144,342.964 L37.144,342.616 C37.108,341.128 36.244,339.796 34.444,339.796 C32.608,339.796 31.528,341.056 31.528,342.916 C31.528,344.776 32.584,346.156 34.468,346.156 Z M36.088,342.112 L32.596,342.112 C32.728,341.344 33.328,340.684 34.42,340.684 C35.44,340.684 36.028,341.344 36.088,342.112 Z M40.912,346.156 C42.544,346.156 43.396,345.256 43.396,344.26 C43.396,343.156 42.724,342.616 41.668,342.436 L40.984,342.328 L40.408,342.232 C39.796,342.136 39.496,341.956 39.496,341.488 C39.496,340.972 40.024,340.684 40.804,340.684 C41.56,340.684 42.136,340.948 42.22,341.524 L43.24,341.524 C43.108,340.468 42.28,339.796 40.852,339.796 C39.22,339.796 38.464,340.576 38.464,341.584 C38.464,342.496 39.052,342.952 39.916,343.108 L41.272,343.336 C42.04,343.468 42.376,343.756 42.376,344.284 C42.376,344.944 41.776,345.268 40.864,345.268 C39.952,345.268 39.352,344.932 39.256,344.248 L38.224,344.248 C38.356,345.4 39.196,346.156 40.912,346.156 Z M45.976,338.38 L45.976,337.276 L44.896,337.276 L44.896,338.38 L45.976,338.38 Z M45.94,346 L45.94,339.952 L44.92,339.952 L44.92,346 L45.94,346 Z M50.536,348.484 C52.3,348.484 53.356,347.392 53.356,345.7 L53.356,339.952 L52.372,339.952 L52.372,340.6 L52.108,340.6 C51.784,340.18 51.208,339.796 50.26,339.796 C48.592,339.796 47.572,341.116 47.572,342.892 C47.572,344.656 48.592,345.976 50.26,345.976 C51.172,345.976 51.748,345.592 52.072,345.172 L52.336,345.172 L52.336,345.652 C52.336,346.864 51.772,347.62 50.524,347.62 C49.612,347.62 48.988,347.356 48.808,346.636 L47.8,346.636 C47.98,347.836 48.988,348.484 50.536,348.484 Z M50.452,345.088 C49.264,345.088 48.592,344.2 48.592,342.892 C48.592,341.56 49.264,340.684 50.452,340.684 C51.748,340.684 52.36,341.728 52.36,342.892 C52.36,344.044 51.748,345.088 50.452,345.088 Z M56.344,346 L56.344,342.724 C56.344,341.656 57.064,340.708 58.144,340.708 C59.164,340.708 59.68,341.26 59.68,342.376 L59.68,346 L60.7,346 L60.7,342.16 C60.7,340.708 59.884,339.796 58.396,339.796 C57.58,339.796 56.908,340.132 56.572,340.6 L56.308,340.6 L56.308,339.952 L55.324,339.952 L55.324,346 L56.344,346 Z M65.14,346.156 C66.64,346.156 67.516,345.364 67.708,344.332 L66.676,344.332 C66.496,344.908 65.992,345.268 65.14,345.268 C63.892,345.268 63.244,344.404 63.208,342.964 L67.816,342.964 L67.816,342.616 C67.78,341.128 66.916,339.796 65.116,339.796 C63.28,339.796 62.2,341.056 62.2,342.916 C62.2,344.776 63.256,346.156 65.14,346.156 Z M66.76,342.112 L63.268,342.112 C63.4,341.344 64,340.684 65.092,340.684 C66.112,340.684 66.7,341.344 66.76,342.112 Z M70.42,346 L70.42,342.976 C70.42,341.644 71.152,340.912 72.352,340.912 L72.856,340.912 L72.856,339.952 L72.4,339.952 C71.524,339.952 70.948,340.3 70.648,340.672 L70.384,340.672 L70.384,339.952 L69.4,339.952 L69.4,346 L70.42,346 Z" id="Designer" fill="#FFFFFF" fill-rule="nonzero"></path>
                    <g id="def_24" transform="translate(0.000000, 308.000000)" fill="#050038" fill-rule="nonzero">
                        <path d="M3,19 L7.39426614,16.4107573 L9.25379064,21.0712038 C9.45774896,21.5844484 10.0395044,21.8343654 10.5524644,21.6296937 C10.5527023,21.6295988 10.5529401,21.6295038 10.5528927,21.6286955 L11.0528411,21.4287699 C11.5652808,21.2233166 11.8147882,20.6416788 11.6105069,20.1287708 L9.74996829,15.4694913 L9.74996829,15.4694913 L14.5,14 L3,2 L3,19 Z" id="Path-Copy-5" transform="translate(8.750000, 12.000000) rotate(-15.000000) translate(-8.750000, -12.000000) "></path>
                    </g>
                </g>
            </g>
        </g>
    </g>
</svg>