<svg width="371" height="195" viewBox="0 0 371 195" fill="none" xmlns="http://www.w3.org/2000/svg">
<rect width="83" height="24" fill="#FF6575"/>
<path d="M22.6289 12.5132H23.6602C23.6064 13.0073 23.465 13.4495 23.2358 13.8398C23.0067 14.2301 22.6826 14.5399 22.2637 14.769C21.8447 14.9946 21.3219 15.1074 20.6953 15.1074C20.237 15.1074 19.8198 15.0215 19.4438 14.8496C19.0715 14.6777 18.751 14.4342 18.4824 14.1191C18.2139 13.8005 18.0062 13.4191 17.8594 12.9751C17.7161 12.5275 17.6445 12.0298 17.6445 11.4819V10.7031C17.6445 10.1553 17.7161 9.65934 17.8594 9.21533C18.0062 8.76774 18.2157 8.3846 18.4878 8.06592C18.7635 7.74723 19.0947 7.50195 19.4814 7.33008C19.8682 7.1582 20.3032 7.07227 20.7866 7.07227C21.3774 7.07227 21.877 7.18327 22.2852 7.40527C22.6934 7.62728 23.0103 7.93522 23.2358 8.3291C23.465 8.7194 23.6064 9.17236 23.6602 9.68799H22.6289C22.5788 9.32275 22.4857 9.00944 22.3496 8.74805C22.2135 8.48307 22.0202 8.27897 21.7695 8.13574C21.5189 7.99251 21.1912 7.9209 20.7866 7.9209C20.4393 7.9209 20.1331 7.98714 19.8682 8.11963C19.6068 8.25212 19.3866 8.4401 19.2075 8.68359C19.0321 8.92708 18.8996 9.21891 18.8101 9.55908C18.7205 9.89925 18.6758 10.277 18.6758 10.6924V11.4819C18.6758 11.8651 18.7152 12.2249 18.7939 12.5615C18.8763 12.8981 18.9998 13.1935 19.1646 13.4478C19.3293 13.702 19.5387 13.9025 19.793 14.0493C20.0472 14.1925 20.348 14.2642 20.6953 14.2642C21.1357 14.2642 21.4867 14.1943 21.748 14.0547C22.0094 13.915 22.2064 13.7145 22.3389 13.4531C22.4749 13.1917 22.5716 12.8784 22.6289 12.5132ZM25.3192 12.1587V12.0352C25.3192 11.6162 25.3801 11.2277 25.5018 10.8696C25.6235 10.508 25.799 10.1947 26.0282 9.92969C26.2573 9.66113 26.5348 9.45345 26.8607 9.30664C27.1865 9.15625 27.5518 9.08105 27.9564 9.08105C28.3646 9.08105 28.7316 9.15625 29.0575 9.30664C29.3869 9.45345 29.6662 9.66113 29.8954 9.92969C30.1281 10.1947 30.3053 10.508 30.4271 10.8696C30.5488 11.2277 30.6097 11.6162 30.6097 12.0352V12.1587C30.6097 12.5776 30.5488 12.9661 30.4271 13.3242C30.3053 13.6823 30.1281 13.9956 29.8954 14.2642C29.6662 14.5291 29.3887 14.7368 29.0628 14.8872C28.7406 15.034 28.3753 15.1074 27.9671 15.1074C27.5589 15.1074 27.1919 15.034 26.8661 14.8872C26.5402 14.7368 26.2609 14.5291 26.0282 14.2642C25.799 13.9956 25.6235 13.6823 25.5018 13.3242C25.3801 12.9661 25.3192 12.5776 25.3192 12.1587ZM26.3128 12.0352V12.1587C26.3128 12.4487 26.3468 12.7227 26.4149 12.9805C26.4829 13.2347 26.585 13.4603 26.721 13.6572C26.8607 13.8542 27.0343 14.0099 27.242 14.1245C27.4497 14.2355 27.6914 14.291 27.9671 14.291C28.2393 14.291 28.4774 14.2355 28.6815 14.1245C28.8892 14.0099 29.061 13.8542 29.1971 13.6572C29.3332 13.4603 29.4352 13.2347 29.5033 12.9805C29.5749 12.7227 29.6107 12.4487 29.6107 12.1587V12.0352C29.6107 11.7487 29.5749 11.4784 29.5033 11.2241C29.4352 10.9663 29.3314 10.7389 29.1917 10.542C29.0557 10.3415 28.8838 10.1839 28.6761 10.0693C28.472 9.95475 28.2321 9.89746 27.9564 9.89746C27.6843 9.89746 27.4443 9.95475 27.2367 10.0693C27.0326 10.1839 26.8607 10.3415 26.721 10.542C26.585 10.7389 26.4829 10.9663 26.4149 11.2241C26.3468 11.4784 26.3128 11.7487 26.3128 12.0352ZM33.5954 6.75V15H32.5964V6.75H33.5954ZM35.5874 12.1587V12.0352C35.5874 11.6162 35.6483 11.2277 35.77 10.8696C35.8918 10.508 36.0672 10.1947 36.2964 9.92969C36.5256 9.66113 36.8031 9.45345 37.1289 9.30664C37.4548 9.15625 37.82 9.08105 38.2246 9.08105C38.6328 9.08105 38.9999 9.15625 39.3257 9.30664C39.6551 9.45345 39.9344 9.66113 40.1636 9.92969C40.3963 10.1947 40.5736 10.508 40.6953 10.8696C40.8171 11.2277 40.8779 11.6162 40.8779 12.0352V12.1587C40.8779 12.5776 40.8171 12.9661 40.6953 13.3242C40.5736 13.6823 40.3963 13.9956 40.1636 14.2642C39.9344 14.5291 39.6569 14.7368 39.3311 14.8872C39.0088 15.034 38.6436 15.1074 38.2354 15.1074C37.8272 15.1074 37.4601 15.034 37.1343 14.8872C36.8085 14.7368 36.5292 14.5291 36.2964 14.2642C36.0672 13.9956 35.8918 13.6823 35.77 13.3242C35.6483 12.9661 35.5874 12.5776 35.5874 12.1587ZM36.5811 12.0352V12.1587C36.5811 12.4487 36.6151 12.7227 36.6831 12.9805C36.7512 13.2347 36.8532 13.4603 36.9893 13.6572C37.1289 13.8542 37.3026 14.0099 37.5103 14.1245C37.718 14.2355 37.9597 14.291 38.2354 14.291C38.5075 14.291 38.7456 14.2355 38.9497 14.1245C39.1574 14.0099 39.3293 13.8542 39.4654 13.6572C39.6014 13.4603 39.7035 13.2347 39.7715 12.9805C39.8431 12.7227 39.8789 12.4487 39.8789 12.1587V12.0352C39.8789 11.7487 39.8431 11.4784 39.7715 11.2241C39.7035 10.9663 39.5996 10.7389 39.46 10.542C39.3239 10.3415 39.152 10.1839 38.9444 10.0693C38.7403 9.95475 38.5003 9.89746 38.2246 9.89746C37.9525 9.89746 37.7126 9.95475 37.5049 10.0693C37.3008 10.1839 37.1289 10.3415 36.9893 10.542C36.8532 10.7389 36.7512 10.9663 36.6831 11.2241C36.6151 11.4784 36.5811 11.7487 36.5811 12.0352ZM43.7723 10.3433V15H42.7733V9.18848H43.7186L43.7723 10.3433ZM43.5682 11.874L43.1063 11.8579C43.1099 11.4604 43.1618 11.0934 43.2621 10.7568C43.3623 10.4167 43.5109 10.1213 43.7079 9.87061C43.9048 9.61995 44.1501 9.4266 44.4437 9.29053C44.7373 9.15088 45.0775 9.08105 45.4642 9.08105C45.7364 9.08105 45.987 9.12044 46.2162 9.19922C46.4453 9.27441 46.6441 9.39437 46.8124 9.55908C46.9807 9.7238 47.1114 9.93506 47.2045 10.1929C47.2976 10.4507 47.3441 10.7622 47.3441 11.1274V15H46.3504V11.1758C46.3504 10.8714 46.2985 10.6279 46.1947 10.4453C46.0944 10.2627 45.9512 10.1302 45.765 10.0479C45.5788 9.96191 45.3604 9.91895 45.1097 9.91895C44.8161 9.91895 44.5708 9.97087 44.3739 10.0747C44.1769 10.1785 44.0194 10.3218 43.9012 10.5044C43.7831 10.687 43.6971 10.8965 43.6434 11.1328C43.5933 11.3656 43.5682 11.6126 43.5682 11.874ZM47.3334 11.3262L46.6673 11.5303C46.6709 11.2116 46.7228 10.9054 46.8231 10.6118C46.9269 10.3182 47.0755 10.0568 47.2689 9.82764C47.4658 9.59847 47.7075 9.41764 47.994 9.28516C48.2805 9.14909 48.6081 9.08105 48.9769 9.08105C49.2884 9.08105 49.5642 9.12223 49.8041 9.20459C50.0476 9.28695 50.2517 9.41406 50.4164 9.58594C50.5847 9.75423 50.7118 9.97087 50.7977 10.2358C50.8837 10.5008 50.9266 10.8159 50.9266 11.1812V15H49.9276V11.1704C49.9276 10.8446 49.8757 10.5921 49.7718 10.4131C49.6716 10.2305 49.5283 10.1034 49.3421 10.0317C49.1595 9.95654 48.9411 9.91895 48.6869 9.91895C48.4684 9.91895 48.2751 9.95654 48.1068 10.0317C47.9385 10.1069 47.7971 10.2108 47.6825 10.3433C47.5679 10.4722 47.4802 10.6208 47.4193 10.7891C47.362 10.9574 47.3334 11.1364 47.3334 11.3262ZM53.0852 6.75H54.0842V13.8721L53.9982 15H53.0852V6.75ZM58.0104 12.0459V12.1587C58.0104 12.5812 57.9603 12.9733 57.8601 13.335C57.7598 13.693 57.613 14.0046 57.4196 14.2695C57.2263 14.5345 56.9899 14.7404 56.7106 14.8872C56.4313 15.034 56.1109 15.1074 55.7492 15.1074C55.3804 15.1074 55.0563 15.0448 54.7771 14.9194C54.5013 14.7905 54.2686 14.6061 54.0788 14.3662C53.889 14.1263 53.7368 13.8363 53.6223 13.4961C53.5113 13.1559 53.4343 12.7728 53.3913 12.3467V11.8525C53.4343 11.4229 53.5113 11.0379 53.6223 10.6978C53.7368 10.3576 53.889 10.0675 54.0788 9.82764C54.2686 9.58415 54.5013 9.39974 54.7771 9.27441C55.0528 9.14551 55.3732 9.08105 55.7385 9.08105C56.1037 9.08105 56.4278 9.15267 56.7106 9.2959C56.9935 9.43555 57.2298 9.63607 57.4196 9.89746C57.613 10.1589 57.7598 10.4722 57.8601 10.8374C57.9603 11.1991 58.0104 11.6019 58.0104 12.0459ZM57.0114 12.1587V12.0459C57.0114 11.7559 56.9846 11.4837 56.9309 11.2295C56.8771 10.9717 56.7912 10.7461 56.673 10.5527C56.5549 10.3558 56.3991 10.2018 56.2058 10.0908C56.0124 9.97624 55.7743 9.91895 55.4914 9.91895C55.2408 9.91895 55.0223 9.96191 54.8361 10.0479C54.6535 10.1338 54.4978 10.2502 54.3688 10.397C54.2399 10.5402 54.1343 10.7049 54.052 10.8911C53.9732 11.0737 53.9141 11.2635 53.8747 11.4604V12.7549C53.932 13.0055 54.0251 13.2472 54.154 13.48C54.2865 13.7091 54.4619 13.8971 54.6804 14.0439C54.9024 14.1908 55.1763 14.2642 55.5021 14.2642C55.7707 14.2642 55.9999 14.2104 56.1896 14.103C56.383 13.992 56.5388 13.8398 56.6569 13.6465C56.7787 13.4531 56.8682 13.2293 56.9255 12.9751C56.9828 12.7209 57.0114 12.4487 57.0114 12.1587ZM59.6641 12.1587V12.0352C59.6641 11.6162 59.725 11.2277 59.8467 10.8696C59.9685 10.508 60.1439 10.1947 60.3731 9.92969C60.6023 9.66113 60.8798 9.45345 61.2056 9.30664C61.5315 9.15625 61.8967 9.08105 62.3013 9.08105C62.7095 9.08105 63.0765 9.15625 63.4024 9.30664C63.7318 9.45345 64.0111 9.66113 64.2403 9.92969C64.473 10.1947 64.6503 10.508 64.772 10.8696C64.8938 11.2277 64.9546 11.6162 64.9546 12.0352V12.1587C64.9546 12.5776 64.8938 12.9661 64.772 13.3242C64.6503 13.6823 64.473 13.9956 64.2403 14.2642C64.0111 14.5291 63.7336 14.7368 63.4078 14.8872C63.0855 15.034 62.7203 15.1074 62.312 15.1074C61.9038 15.1074 61.5368 15.034 61.211 14.8872C60.8851 14.7368 60.6058 14.5291 60.3731 14.2642C60.1439 13.9956 59.9685 13.6823 59.8467 13.3242C59.725 12.9661 59.6641 12.5776 59.6641 12.1587ZM60.6578 12.0352V12.1587C60.6578 12.4487 60.6918 12.7227 60.7598 12.9805C60.8278 13.2347 60.9299 13.4603 61.066 13.6572C61.2056 13.8542 61.3793 14.0099 61.587 14.1245C61.7946 14.2355 62.0363 14.291 62.312 14.291C62.5842 14.291 62.8223 14.2355 63.0264 14.1245C63.2341 14.0099 63.406 13.8542 63.542 13.6572C63.6781 13.4603 63.7801 13.2347 63.8482 12.9805C63.9198 12.7227 63.9556 12.4487 63.9556 12.1587V12.0352C63.9556 11.7487 63.9198 11.4784 63.8482 11.2241C63.7801 10.9663 63.6763 10.7389 63.5367 10.542C63.4006 10.3415 63.2287 10.1839 63.021 10.0693C62.8169 9.95475 62.577 9.89746 62.3013 9.89746C62.0292 9.89746 61.7893 9.95475 61.5816 10.0693C61.3775 10.1839 61.2056 10.3415 61.066 10.542C60.9299 10.7389 60.8278 10.9663 60.7598 11.2241C60.6918 11.4784 60.6578 11.7487 60.6578 12.0352Z" fill="white"/>
<rect x="288" y="37" width="83" height="24" fill="#3F53D9"/>
<path d="M304.235 44.1797H305.24L307.802 50.5552L310.358 44.1797H311.368L308.188 52H307.404L304.235 44.1797ZM303.908 44.1797H304.794L304.939 48.9492V52H303.908V44.1797ZM310.804 44.1797H311.69V52H310.659V48.9492L310.804 44.1797ZM313.758 49.1587V49.0352C313.758 48.6162 313.819 48.2277 313.94 47.8696C314.062 47.508 314.237 47.1947 314.467 46.9297C314.696 46.6611 314.973 46.4535 315.299 46.3066C315.625 46.1562 315.99 46.0811 316.395 46.0811C316.803 46.0811 317.17 46.1562 317.496 46.3066C317.825 46.4535 318.105 46.6611 318.334 46.9297C318.567 47.1947 318.744 47.508 318.866 47.8696C318.987 48.2277 319.048 48.6162 319.048 49.0352V49.1587C319.048 49.5776 318.987 49.9661 318.866 50.3242C318.744 50.6823 318.567 50.9956 318.334 51.2642C318.105 51.5291 317.827 51.7368 317.501 51.8872C317.179 52.034 316.814 52.1074 316.406 52.1074C315.997 52.1074 315.63 52.034 315.305 51.8872C314.979 51.7368 314.699 51.5291 314.467 51.2642C314.237 50.9956 314.062 50.6823 313.94 50.3242C313.819 49.9661 313.758 49.5776 313.758 49.1587ZM314.751 49.0352V49.1587C314.751 49.4487 314.785 49.7227 314.853 49.9805C314.921 50.2347 315.023 50.4603 315.16 50.6572C315.299 50.8542 315.473 51.0099 315.681 51.1245C315.888 51.2355 316.13 51.291 316.406 51.291C316.678 51.291 316.916 51.2355 317.12 51.1245C317.328 51.0099 317.5 50.8542 317.636 50.6572C317.772 50.4603 317.874 50.2347 317.942 49.9805C318.013 49.7227 318.049 49.4487 318.049 49.1587V49.0352C318.049 48.7487 318.013 48.4784 317.942 48.2241C317.874 47.9663 317.77 47.7389 317.63 47.542C317.494 47.3415 317.322 47.1839 317.115 47.0693C316.91 46.9548 316.671 46.8975 316.395 46.8975C316.123 46.8975 315.883 46.9548 315.675 47.0693C315.471 47.1839 315.299 47.3415 315.16 47.542C315.023 47.7389 314.921 47.9663 314.853 48.2241C314.785 48.4784 314.751 48.7487 314.751 49.0352ZM321.948 47.1016V52H320.954V46.1885H321.921L321.948 47.1016ZM323.763 46.1562L323.758 47.0801C323.676 47.0622 323.597 47.0514 323.522 47.0479C323.45 47.0407 323.368 47.0371 323.275 47.0371C323.045 47.0371 322.843 47.0729 322.668 47.1445C322.492 47.2161 322.344 47.3164 322.222 47.4453C322.1 47.5742 322.003 47.7282 321.932 47.9072C321.864 48.0827 321.819 48.276 321.798 48.4873L321.518 48.6484C321.518 48.2975 321.552 47.9681 321.62 47.6602C321.692 47.3522 321.801 47.0801 321.948 46.8438C322.095 46.6038 322.281 46.4176 322.507 46.2852C322.736 46.1491 323.008 46.0811 323.323 46.0811C323.395 46.0811 323.477 46.09 323.57 46.1079C323.663 46.1222 323.728 46.1383 323.763 46.1562ZM328.554 51.0063V48.0146C328.554 47.7855 328.507 47.5868 328.414 47.4185C328.325 47.2466 328.188 47.1141 328.006 47.021C327.823 46.9279 327.598 46.8813 327.329 46.8813C327.078 46.8813 326.858 46.9243 326.668 47.0103C326.482 47.0962 326.335 47.209 326.228 47.3486C326.124 47.4883 326.072 47.6387 326.072 47.7998H325.079C325.079 47.5921 325.132 47.3862 325.24 47.1821C325.347 46.978 325.501 46.7936 325.702 46.6289C325.906 46.4606 326.149 46.3281 326.432 46.2314C326.719 46.1312 327.037 46.0811 327.388 46.0811C327.811 46.0811 328.183 46.1527 328.505 46.2959C328.831 46.4391 329.085 46.6558 329.268 46.9458C329.454 47.2323 329.547 47.5921 329.547 48.0254V50.7324C329.547 50.9258 329.563 51.1317 329.596 51.3501C329.632 51.5685 329.683 51.7565 329.751 51.9141V52H328.715C328.665 51.8854 328.625 51.7332 328.597 51.5435C328.568 51.3501 328.554 51.1711 328.554 51.0063ZM328.726 48.4766L328.736 49.1748H327.732C327.449 49.1748 327.197 49.1981 326.975 49.2446C326.753 49.2876 326.566 49.3538 326.416 49.4434C326.266 49.5329 326.151 49.6457 326.072 49.7817C325.994 49.9142 325.954 50.07 325.954 50.249C325.954 50.4316 325.995 50.5981 326.078 50.7485C326.16 50.8989 326.284 51.0189 326.448 51.1084C326.617 51.1943 326.822 51.2373 327.066 51.2373C327.37 51.2373 327.639 51.1729 327.872 51.0439C328.104 50.915 328.289 50.7575 328.425 50.5713C328.564 50.3851 328.64 50.2043 328.65 50.0288L329.075 50.5068C329.05 50.6572 328.982 50.8237 328.871 51.0063C328.76 51.189 328.611 51.3644 328.425 51.5327C328.242 51.6974 328.024 51.8353 327.77 51.9463C327.519 52.0537 327.236 52.1074 326.921 52.1074C326.527 52.1074 326.181 52.0304 325.884 51.8765C325.591 51.7225 325.362 51.5166 325.197 51.2588C325.036 50.9974 324.955 50.7056 324.955 50.3833C324.955 50.0718 325.016 49.7979 325.138 49.5615C325.259 49.3216 325.435 49.1229 325.664 48.9653C325.893 48.8042 326.169 48.6825 326.491 48.6001C326.813 48.5177 327.173 48.4766 327.571 48.4766H328.726ZM334.203 46.1885V46.9512H331.061V46.1885H334.203ZM332.125 44.7759H333.119V50.5605C333.119 50.7575 333.149 50.9061 333.21 51.0063C333.271 51.1066 333.349 51.1729 333.446 51.2051C333.543 51.2373 333.647 51.2534 333.758 51.2534C333.84 51.2534 333.926 51.2463 334.015 51.2319C334.109 51.214 334.178 51.1997 334.225 51.189L334.23 52C334.152 52.0251 334.048 52.0483 333.919 52.0698C333.793 52.0949 333.641 52.1074 333.462 52.1074C333.219 52.1074 332.995 52.0591 332.791 51.9624C332.587 51.8657 332.424 51.7046 332.302 51.479C332.184 51.2498 332.125 50.9419 332.125 50.5552V44.7759ZM339.585 50.6572V46.1885H340.584V52H339.633L339.585 50.6572ZM339.773 49.4326L340.186 49.4219C340.186 49.8086 340.145 50.1667 340.063 50.4961C339.984 50.8219 339.855 51.1048 339.676 51.3447C339.497 51.5846 339.262 51.7726 338.972 51.9087C338.682 52.0412 338.33 52.1074 337.914 52.1074C337.631 52.1074 337.372 52.0662 337.135 51.9839C336.903 51.9015 336.702 51.7744 336.534 51.6025C336.366 51.4307 336.235 51.2069 336.142 50.9312C336.052 50.6554 336.008 50.3242 336.008 49.9375V46.1885H337.001V49.9482C337.001 50.2096 337.03 50.4263 337.087 50.5981C337.148 50.7664 337.229 50.9007 337.329 51.001C337.433 51.0977 337.547 51.1657 337.673 51.2051C337.801 51.2445 337.934 51.2642 338.07 51.2642C338.493 51.2642 338.827 51.1836 339.074 51.0225C339.321 50.8577 339.499 50.6375 339.606 50.3618C339.717 50.0825 339.773 49.7728 339.773 49.4326ZM344.23 50.9688L345.723 46.1885H346.378L346.25 47.1392L344.73 52H344.09L344.23 50.9688ZM343.226 46.1885L344.499 51.0225L344.59 52H343.918L342.232 46.1885H343.226ZM347.807 50.9849L349.021 46.1885H350.009L348.323 52H347.657L347.807 50.9849ZM346.523 46.1885L347.984 50.8882L348.151 52H347.517L345.954 47.1284L345.825 46.1885H346.523ZM355.117 51.0063V48.0146C355.117 47.7855 355.07 47.5868 354.977 47.4185C354.887 47.2466 354.751 47.1141 354.569 47.021C354.386 46.9279 354.161 46.8813 353.892 46.8813C353.641 46.8813 353.421 46.9243 353.231 47.0103C353.045 47.0962 352.898 47.209 352.791 47.3486C352.687 47.4883 352.635 47.6387 352.635 47.7998H351.641C351.641 47.5921 351.695 47.3862 351.803 47.1821C351.91 46.978 352.064 46.7936 352.265 46.6289C352.469 46.4606 352.712 46.3281 352.995 46.2314C353.281 46.1312 353.6 46.0811 353.951 46.0811C354.374 46.0811 354.746 46.1527 355.068 46.2959C355.394 46.4391 355.648 46.6558 355.831 46.9458C356.017 47.2323 356.11 47.5921 356.11 48.0254V50.7324C356.11 50.9258 356.126 51.1317 356.159 51.3501C356.194 51.5685 356.246 51.7565 356.314 51.9141V52H355.278C355.228 51.8854 355.188 51.7332 355.16 51.5435C355.131 51.3501 355.117 51.1711 355.117 51.0063ZM355.288 48.4766L355.299 49.1748H354.295C354.012 49.1748 353.759 49.1981 353.537 49.2446C353.315 49.2876 353.129 49.3538 352.979 49.4434C352.828 49.5329 352.714 49.6457 352.635 49.7817C352.556 49.9142 352.517 50.07 352.517 50.249C352.517 50.4316 352.558 50.5981 352.641 50.7485C352.723 50.8989 352.846 51.0189 353.011 51.1084C353.179 51.1943 353.385 51.2373 353.629 51.2373C353.933 51.2373 354.202 51.1729 354.434 51.0439C354.667 50.915 354.852 50.7575 354.988 50.5713C355.127 50.3851 355.203 50.2043 355.213 50.0288L355.638 50.5068C355.613 50.6572 355.544 50.8237 355.433 51.0063C355.322 51.189 355.174 51.3644 354.988 51.5327C354.805 51.6974 354.587 51.8353 354.332 51.9463C354.082 52.0537 353.799 52.1074 353.484 52.1074C353.09 52.1074 352.744 52.0304 352.447 51.8765C352.154 51.7225 351.924 51.5166 351.76 51.2588C351.599 50.9974 351.518 50.7056 351.518 50.3833C351.518 50.0718 351.579 49.7979 351.701 49.5615C351.822 49.3216 351.998 49.1229 352.227 48.9653C352.456 48.8042 352.732 48.6825 353.054 48.6001C353.376 48.5177 353.736 48.4766 354.134 48.4766H355.288Z" fill="white"/>
<path d="M103.843 50.4918C104.667 50.5785 105.405 49.9809 105.492 49.157L106.905 35.7312C106.992 34.9073 106.394 34.1691 105.57 34.0824C104.746 33.9957 104.008 34.5933 103.921 35.4171L102.665 47.3512L90.7312 46.095C89.9073 46.0083 89.1691 46.6059 89.0824 47.4297C88.9957 48.2536 89.5933 48.9918 90.4171 49.0785L103.843 50.4918ZM85.8341 28.9438L102.834 49.9438L105.166 48.0562L88.1659 27.0562L85.8341 28.9438Z" fill="#FF6575"/>
<line x1="288" y1="37.0127" x2="286" y2="194.013" stroke="#3F53D9" stroke-width="2"/>
</svg>
