<svg width="202" height="28" viewBox="0 0 202 28" fill="none" xmlns="http://www.w3.org/2000/svg">
<rect y="4" width="24" height="24" rx="12" fill="#6B6B6B"/>
<ellipse cx="12" cy="16" rx="6" ry="6" fill="white"/>
<ellipse cx="11.9998" cy="16.0002" rx="2" ry="2" fill="#222020"/>
<path d="M40.38 14.736C40.932 14.736 41.4 14.668 41.784 14.532C42.176 14.388 42.496 14.192 42.744 13.944C42.992 13.696 43.172 13.408 43.284 13.08C43.396 12.744 43.452 12.384 43.452 12C43.452 11.232 43.2 10.632 42.696 10.2C42.2 9.768 41.428 9.552 40.38 9.552H38.748V14.736H40.38ZM48.996 24H45.324C44.644 24 44.156 23.744 43.86 23.232L40.956 18.156C40.82 17.94 40.668 17.784 40.5 17.688C40.332 17.584 40.092 17.532 39.78 17.532H38.748V24H34.692V6.516H40.38C41.644 6.516 42.72 6.648 43.608 6.912C44.504 7.168 45.232 7.528 45.792 7.992C46.36 8.456 46.772 9.004 47.028 9.636C47.284 10.268 47.412 10.956 47.412 11.7C47.412 12.268 47.336 12.804 47.184 13.308C47.032 13.812 46.808 14.28 46.512 14.712C46.216 15.136 45.848 15.516 45.408 15.852C44.976 16.188 44.476 16.464 43.908 16.68C44.172 16.816 44.42 16.988 44.652 17.196C44.884 17.396 45.092 17.636 45.276 17.916L48.996 24ZM54.9491 11.364C55.8931 11.364 56.7531 11.512 57.5291 11.808C58.3051 12.104 58.9691 12.528 59.5211 13.08C60.0811 13.632 60.5131 14.304 60.8171 15.096C61.1291 15.88 61.2851 16.764 61.2851 17.748C61.2851 18.74 61.1291 19.636 60.8171 20.436C60.5131 21.228 60.0811 21.904 59.5211 22.464C58.9691 23.016 58.3051 23.444 57.5291 23.748C56.7531 24.044 55.8931 24.192 54.9491 24.192C53.9971 24.192 53.1291 24.044 52.3451 23.748C51.5691 23.444 50.8971 23.016 50.3291 22.464C49.7691 21.904 49.3331 21.228 49.0211 20.436C48.7171 19.636 48.5651 18.74 48.5651 17.748C48.5651 16.764 48.7171 15.88 49.0211 15.096C49.3331 14.304 49.7691 13.632 50.3291 13.08C50.8971 12.528 51.5691 12.104 52.3451 11.808C53.1291 11.512 53.9971 11.364 54.9491 11.364ZM54.9491 21.432C55.8051 21.432 56.4331 21.132 56.8331 20.532C57.2411 19.924 57.4451 19.004 57.4451 17.772C57.4451 16.54 57.2411 15.624 56.8331 15.024C56.4331 14.424 55.8051 14.124 54.9491 14.124C54.0691 14.124 53.4251 14.424 53.0171 15.024C52.6091 15.624 52.4051 16.54 52.4051 17.772C52.4051 19.004 52.6091 19.924 53.0171 20.532C53.4251 21.132 54.0691 21.432 54.9491 21.432ZM74.3184 11.556V24H72.0144C71.5504 24 71.2464 23.792 71.1024 23.376L70.8864 22.656C70.6464 22.888 70.3984 23.1 70.1424 23.292C69.8864 23.476 69.6104 23.636 69.3144 23.772C69.0264 23.9 68.7104 24 68.3664 24.072C68.0304 24.152 67.6624 24.192 67.2624 24.192C66.5824 24.192 65.9784 24.076 65.4504 23.844C64.9304 23.604 64.4904 23.272 64.1304 22.848C63.7704 22.424 63.4984 21.924 63.3144 21.348C63.1304 20.772 63.0384 20.14 63.0384 19.452V11.556H66.7584V19.452C66.7584 20.068 66.8984 20.544 67.1784 20.88C67.4584 21.216 67.8704 21.384 68.4144 21.384C68.8224 21.384 69.2024 21.3 69.5544 21.132C69.9144 20.956 70.2624 20.72 70.5984 20.424V11.556H74.3184ZM81.2979 24.192C80.7059 24.192 80.1819 24.108 79.7259 23.94C79.2779 23.764 78.8979 23.52 78.5859 23.208C78.2819 22.888 78.0499 22.504 77.8899 22.056C77.7299 21.608 77.6499 21.108 77.6499 20.556V14.124H76.5939C76.4019 14.124 76.2379 14.064 76.1019 13.944C75.9659 13.816 75.8979 13.632 75.8979 13.392V11.94L77.8779 11.556L78.6099 8.52C78.7059 8.136 78.9779 7.944 79.4259 7.944H81.3699V11.58H84.4539V14.124H81.3699V20.304C81.3699 20.592 81.4379 20.832 81.5739 21.024C81.7179 21.208 81.9219 21.3 82.1859 21.3C82.3219 21.3 82.4339 21.288 82.5219 21.264C82.6179 21.232 82.6979 21.2 82.7619 21.168C82.8339 21.128 82.8979 21.096 82.9539 21.072C83.0179 21.04 83.0899 21.024 83.1699 21.024C83.2819 21.024 83.3699 21.052 83.4339 21.108C83.5059 21.156 83.5779 21.236 83.6499 21.348L84.7779 23.112C84.2979 23.472 83.7579 23.744 83.1579 23.928C82.5579 24.104 81.9379 24.192 81.2979 24.192ZM93.6797 16.284C93.6797 15.988 93.6397 15.7 93.5597 15.42C93.4877 15.14 93.3637 14.892 93.1877 14.676C93.0197 14.452 92.7957 14.272 92.5157 14.136C92.2357 14 91.8957 13.932 91.4957 13.932C90.7917 13.932 90.2397 14.136 89.8397 14.544C89.4397 14.944 89.1757 15.524 89.0477 16.284H93.6797ZM88.9997 18.444C89.1197 19.484 89.4357 20.24 89.9477 20.712C90.4597 21.176 91.1197 21.408 91.9277 21.408C92.3597 21.408 92.7317 21.356 93.0437 21.252C93.3557 21.148 93.6317 21.032 93.8717 20.904C94.1197 20.776 94.3437 20.66 94.5437 20.556C94.7517 20.452 94.9677 20.4 95.1917 20.4C95.4877 20.4 95.7117 20.508 95.8637 20.724L96.9437 22.056C96.5597 22.496 96.1437 22.856 95.6957 23.136C95.2557 23.408 94.7997 23.624 94.3277 23.784C93.8637 23.936 93.3957 24.04 92.9237 24.096C92.4597 24.16 92.0157 24.192 91.5917 24.192C90.7197 24.192 89.8997 24.052 89.1317 23.772C88.3717 23.484 87.7037 23.06 87.1277 22.5C86.5597 21.94 86.1077 21.244 85.7717 20.412C85.4437 19.58 85.2797 18.612 85.2797 17.508C85.2797 16.676 85.4197 15.888 85.6997 15.144C85.9877 14.4 86.3957 13.748 86.9237 13.188C87.4597 12.628 88.1037 12.184 88.8557 11.856C89.6157 11.528 90.4717 11.364 91.4237 11.364C92.2477 11.364 92.9997 11.492 93.6797 11.748C94.3677 12.004 94.9557 12.376 95.4437 12.864C95.9397 13.352 96.3237 13.952 96.5957 14.664C96.8757 15.368 97.0157 16.168 97.0157 17.064C97.0157 17.344 97.0037 17.572 96.9797 17.748C96.9557 17.924 96.9117 18.064 96.8477 18.168C96.7837 18.272 96.6957 18.344 96.5837 18.384C96.4797 18.424 96.3437 18.444 96.1757 18.444H88.9997ZM108.805 10.068C108.685 10.26 108.557 10.404 108.421 10.5C108.293 10.596 108.125 10.644 107.917 10.644C107.733 10.644 107.533 10.588 107.317 10.476C107.109 10.356 106.869 10.224 106.597 10.08C106.333 9.936 106.029 9.808 105.685 9.696C105.341 9.576 104.949 9.516 104.509 9.516C103.749 9.516 103.181 9.68 102.805 10.008C102.437 10.328 102.253 10.764 102.253 11.316C102.253 11.668 102.365 11.96 102.589 12.192C102.813 12.424 103.105 12.624 103.465 12.792C103.833 12.96 104.249 13.116 104.713 13.26C105.185 13.396 105.665 13.552 106.153 13.728C106.641 13.896 107.117 14.096 107.581 14.328C108.053 14.56 108.469 14.856 108.829 15.216C109.197 15.576 109.493 16.016 109.717 16.536C109.941 17.048 110.053 17.668 110.053 18.396C110.053 19.204 109.913 19.96 109.633 20.664C109.353 21.368 108.945 21.984 108.409 22.512C107.881 23.032 107.225 23.444 106.441 23.748C105.665 24.044 104.781 24.192 103.789 24.192C103.245 24.192 102.689 24.136 102.121 24.024C101.561 23.912 101.017 23.756 100.489 23.556C99.9611 23.348 99.4651 23.104 99.0011 22.824C98.5371 22.544 98.1331 22.232 97.7891 21.888L98.9891 19.992C99.0851 19.856 99.2091 19.744 99.3611 19.656C99.5211 19.56 99.6931 19.512 99.8771 19.512C100.117 19.512 100.357 19.588 100.597 19.74C100.845 19.892 101.121 20.06 101.425 20.244C101.737 20.428 102.093 20.596 102.493 20.748C102.893 20.9 103.365 20.976 103.909 20.976C104.645 20.976 105.217 20.816 105.625 20.496C106.033 20.168 106.237 19.652 106.237 18.948C106.237 18.54 106.125 18.208 105.901 17.952C105.677 17.696 105.381 17.484 105.013 17.316C104.653 17.148 104.241 17 103.777 16.872C103.313 16.744 102.837 16.604 102.349 16.452C101.861 16.292 101.385 16.1 100.921 15.876C100.457 15.644 100.041 15.344 99.6731 14.976C99.3131 14.6 99.0211 14.136 98.7971 13.584C98.5731 13.024 98.4611 12.336 98.4611 11.52C98.4611 10.864 98.5931 10.224 98.8571 9.6C99.1211 8.976 99.5091 8.42 100.021 7.932C100.533 7.444 101.161 7.056 101.905 6.768C102.649 6.472 103.501 6.324 104.461 6.324C104.997 6.324 105.517 6.368 106.021 6.456C106.533 6.536 107.017 6.66 107.473 6.828C107.929 6.988 108.353 7.184 108.745 7.416C109.145 7.64 109.501 7.896 109.813 8.184L108.805 10.068ZM129.594 15.252C129.594 16.516 129.374 17.692 128.934 18.78C128.502 19.868 127.89 20.816 127.098 21.624C126.306 22.424 125.35 23.052 124.23 23.508C123.118 23.964 121.882 24.192 120.522 24.192C119.162 24.192 117.922 23.964 116.802 23.508C115.682 23.052 114.722 22.424 113.922 21.624C113.13 20.816 112.514 19.868 112.074 18.78C111.642 17.692 111.426 16.516 111.426 15.252C111.426 13.988 111.642 12.812 112.074 11.724C112.514 10.636 113.13 9.692 113.922 8.892C114.722 8.092 115.682 7.464 116.802 7.008C117.922 6.552 119.162 6.324 120.522 6.324C121.882 6.324 123.118 6.556 124.23 7.02C125.35 7.476 126.306 8.104 127.098 8.904C127.89 9.704 128.502 10.648 128.934 11.736C129.374 12.824 129.594 13.996 129.594 15.252ZM125.442 15.252C125.442 14.388 125.33 13.612 125.106 12.924C124.882 12.228 124.558 11.64 124.134 11.16C123.718 10.68 123.206 10.312 122.598 10.056C121.99 9.8 121.298 9.672 120.522 9.672C119.738 9.672 119.038 9.8 118.422 10.056C117.814 10.312 117.298 10.68 116.874 11.16C116.458 11.64 116.138 12.228 115.914 12.924C115.69 13.612 115.578 14.388 115.578 15.252C115.578 16.124 115.69 16.908 115.914 17.604C116.138 18.292 116.458 18.876 116.874 19.356C117.298 19.836 117.814 20.204 118.422 20.46C119.038 20.708 119.738 20.832 120.522 20.832C121.298 20.832 121.99 20.708 122.598 20.46C123.206 20.204 123.718 19.836 124.134 19.356C124.558 18.876 124.882 18.292 125.106 17.604C125.33 16.908 125.442 16.124 125.442 15.252ZM147.245 6.516V24H145.133C144.821 24 144.557 23.952 144.341 23.856C144.133 23.752 143.925 23.576 143.717 23.328L135.473 12.9C135.505 13.212 135.525 13.516 135.533 13.812C135.549 14.1 135.557 14.372 135.557 14.628V24H131.981V6.516H134.117C134.293 6.516 134.441 6.524 134.561 6.54C134.681 6.556 134.789 6.588 134.885 6.636C134.981 6.676 135.073 6.736 135.161 6.816C135.249 6.896 135.349 7.004 135.461 7.14L143.777 17.64C143.737 17.304 143.709 16.98 143.693 16.668C143.677 16.348 143.669 16.048 143.669 15.768V6.516H147.245ZM159.877 17.316L158.257 12.528C158.137 12.224 158.009 11.868 157.873 11.46C157.737 11.044 157.601 10.596 157.465 10.116C157.345 10.604 157.217 11.056 157.081 11.472C156.945 11.888 156.817 12.248 156.697 12.552L155.089 17.316H159.877ZM166.321 24H163.177C162.825 24 162.541 23.92 162.325 23.76C162.109 23.592 161.945 23.38 161.833 23.124L160.801 20.076H154.153L153.121 23.124C153.033 23.348 152.873 23.552 152.641 23.736C152.417 23.912 152.137 24 151.801 24H148.633L155.401 6.516H159.553L166.321 24ZM173.388 14.736C173.94 14.736 174.408 14.668 174.792 14.532C175.184 14.388 175.504 14.192 175.752 13.944C176 13.696 176.18 13.408 176.292 13.08C176.404 12.744 176.46 12.384 176.46 12C176.46 11.232 176.208 10.632 175.704 10.2C175.208 9.768 174.436 9.552 173.388 9.552H171.756V14.736H173.388ZM182.004 24H178.332C177.652 24 177.164 23.744 176.868 23.232L173.964 18.156C173.828 17.94 173.676 17.784 173.508 17.688C173.34 17.584 173.1 17.532 172.788 17.532H171.756V24H167.7V6.516H173.388C174.652 6.516 175.728 6.648 176.616 6.912C177.512 7.168 178.24 7.528 178.8 7.992C179.368 8.456 179.78 9.004 180.036 9.636C180.292 10.268 180.42 10.956 180.42 11.7C180.42 12.268 180.344 12.804 180.192 13.308C180.04 13.812 179.816 14.28 179.52 14.712C179.224 15.136 178.856 15.516 178.416 15.852C177.984 16.188 177.484 16.464 176.916 16.68C177.18 16.816 177.428 16.988 177.66 17.196C177.892 17.396 178.1 17.636 178.284 17.916L182.004 24Z" fill="white"/>
</svg>
