<svg xmlns="http://www.w3.org/2000/svg" viewBox="0 0 32 32"><path fill="#eff2fa" d="M20 27.304h-9a2 2 0 0 1-2-2v-19a2 2 0 0 1 2-2h9a2 2 0 0 1 2 2v19a2 2 0 0 1-2 2z"/><path fill="#d5e5f1" d="M20 4.304h-2a2 2 0 0 1 2 2v19a2 2 0 0 1-2 2h2a2 2 0 0 0 2-2v-19a2 2 0 0 0-2-2z"/><path fill="#90cff1" d="M10 8.304h11v14H10z"/><path fill="#72b7e5" d="M20 8.304h1v14h-1z"/><circle cx="15.5" cy="24.804" r="1" fill="#4c6d86"/><circle cx="13.5" cy="6.304" r=".5" fill="#4c6d86"/><path fill="#4c6d86" d="M17.5 5.804h-2a.5.5 0 0 0 0 1h2a.5.5 0 0 0 0-1z"/></svg>