<svg xmlns="http://www.w3.org/2000/svg" width="32" height="32" viewBox="0 0 32 32"><g transform="translate(17 -1672.362)"><path fill="#f8b84e" d="m 5.37809,1692.3622 -1.381527,0 0,-0.7797 0,-3.2203 10.503969,0 0,4 -2.953792,0"/><path fill="#4bbfeb" d="m 3.996563,1682.3622 5.730587,0 4.766237,6.0198 -10.503919,-0.02 z"/><path fill="none" stroke="#2b4255" stroke-linecap="round" stroke-linejoin="round" d="m 6.000136,1689.362 1.01436,0"/><path fill="#f17f53" fill-rule="evenodd" d="m 14.500155,1691.3622 0,-1 -1.492879,0 c -0.676161,-0.01 -0.676161,1.0096 0,1 z" color="#000" font-family="sans-serif" font-weight="400" overflow="visible" style="line-height:normal;text-indent:0;text-align:start;text-decoration-line:none;text-decoration-style:solid;text-decoration-color:#000;text-transform:none;block-progression:tb;isolation:auto;mix-blend-mode:normal"/><path fill="#f8b84e" style="line-height:normal;text-indent:0;text-align:start;text-decoration-line:none;text-decoration-style:solid;text-decoration-color:#000;text-transform:none;block-progression:tb;isolation:auto;mix-blend-mode:normal" d="m 4.498874,1682.3518 -0.5,0 -0.0059,5.9918 c 2.8e-5,0.2761 0.223869,0.5 0.5,0.5 l 9.504278,0.017 c 0.428638,-4e-4 0.658155,-0.5046 0.376953,-0.8281 l -4.334356,-5.5195 c -0.09444,-0.1086 -0.231088,-0.1712 -0.375,-0.1719 -2.171834,0 -5.165975,0.011 -5.165975,0.011 z m 0.5,0.9898 4.439453,0 3.455451,4.5176 -7.900763,-0.014 0.0059,-4.5039 z" color="#000" font-family="sans-serif" font-weight="400" overflow="visible"/><path fill="#f8b84e" fill-rule="evenodd" style="line-height:normal;text-indent:0;text-align:start;text-decoration-line:none;text-decoration-style:solid;text-decoration-color:#000;text-transform:none;block-progression:tb;isolation:auto;mix-blend-mode:normal" d="m 7.493015,1682.8611 0,6 1,0 0,-6 z" color="#000" font-family="sans-serif" font-weight="400" overflow="visible"/><path fill="#25b39e" d="m -16.5,1684.4852 0,-5.123 20.5,0 0,13.0001 -6.1621384,0 -2.4543194,0 -7.6811982,0 -4.202344,0 0,-5.1711"/><path fill="#34485c" d="m -14.168175,1694.3623 -2.831825,0 0,-2 4.330756,0 5.8002374,0 7.01425554,0 3.99965936,0 6.1586787,0 4.696413,0 0,2 -3.295236,0 -8.9121551,0 -7.9997522,0 z"/><path fill="#576d7e" d="m 8.000016,1691.3622 a 4,4 0 0 0 -3.86914,3 l 1.30664,0 6.009766,0 0.421875,0 a 4,4 0 0 0 -3.869141,-3 z"/><circle cx="-9" cy="1696.362" r="1" fill="none" stroke="#000" stroke-linecap="round" stroke-linejoin="round"/><g transform="translate(1 -1.5)"><circle cx="7" cy="1696.862" r="3" fill="#2b4255"/><circle cx="7" cy="1696.862" r="1" fill="#e9eded"/></g><path fill="#e9eded" d="m -16.5,1685.3652 5.332593,0 0.01467,-0.5029 0.0067,-1.5001 3.3152369,2.9919 -3.3333699,3.0083 0.0067,-1.5 -0.0099,-0.5001 -5.332593,0"/><g transform="translate(-16.5 -.5)"><path fill="#576d7e" d="m 7.500011,1691.8622 a 4,4 0 0 0 -3.86914,3 l 1.30664,0 6.009766,0 0.421875,0 a 4,4 0 0 0 -3.869141,-3 z"/><g transform="translate(.5 -1)"><circle cx="7" cy="1696.862" r="3" fill="#2b4255"/><circle cx="7" cy="1696.862" r="1" fill="#e9eded"/></g></g><path fill="#f17f53" fill-rule="evenodd" style="line-height:normal;text-indent:0;text-align:start;text-decoration-line:none;text-decoration-style:solid;text-decoration-color:#000;text-transform:none;block-progression:tb;isolation:auto;mix-blend-mode:normal" d="m -16.5,1691.3622 0,-1 1.9785,0 a 0.50005,0.50005 0 1 1 0,1 l -1.9785,0 z" color="#000" font-family="sans-serif" font-weight="400" overflow="visible"/></g></svg>